<mxfile host="app.diagrams.net" modified="2023-06-23T13:05:53.914Z" agent="Mozilla/5.0 (Windows NT 10.0; Win64; x64) AppleWebKit/537.36 (KHTML, like Gecko) Chrome/114.0.0.0 Safari/537.36" version="21.5.0" etag="nZoH-5gaZO7CWSzBnMhl" type="github">
  <diagram name="PÃ¡gina-1" id="ui0cI86jaXCyRP_KG-AE">
    <mxGraphModel>
      <root>
        <mxCell id="0" />
        <mxCell id="1" parent="0" />
      </root>
    </mxGraphModel>
  </diagram>
</mxfile>
